<?xml version="1.0" encoding="UTF-8"?>
<svg width="512" height="512" version="1.1" viewBox="0 0 512 512" xml:space="preserve" xmlns="http://www.w3.org/2000/svg">
<style>
#newt {
  fill: #000
}
@media (prefers-color-scheme: dark) {
  #newt {
    fill: #fff
  }
}
</style>
<path id="newt" d="m487.6 196.96c-6.5019-11.523-14.228-22.354-22.975-32.28-4.5189-5.1275-9.3097-10.015-14.336-14.645-11.182-10.294-23.985-22.448-38.214-28.316-2.0134-0.82905-4.255-1.487-6.4165-1.7784-3.5769-0.48796-7.8698-0.0474-8.0878 4.4408-0.20273 4.2798 3.869 9.2766 6.3286 12.421 8.5995 10.987 19.426 19.961 27.89 31.031 2.7711 3.6233 5.4124 7.3591 7.9445 11.157 4.4955 6.7448 8.5876 13.761 12.027 21.101 6.0161 12.834 9.706 26.472 12.246 40.377 3.1935 17.512 1.6087 36.052-0.95102 53.53-5.4216 37-24.565 71.511-57.256 89.33-36.603 19.953-58.053 21.196-89.173 18.447-3.1621-0.27781-6.335-0.54079-9.4849-1.0028-12.977-1.8931-56.405-9.9514-69.076-37.086-0.28878-0.62104-0.54312-1.2386-0.78113-1.8576 3.501-7.4664 5.6606-15.744 6.2547-20.46 0.28987-2.3012 4.748-33.597 6.1522-32.497 5.5204 4.3142 10.448 12.76 14.204 18.862 5.8984 9.6027 14.938 15.425 26.551 11.741 6.831-2.1658 11.515-8.4457 17.771-11.869 7.1104-3.887 14.656-8.1551 22.357-10.797 2.9792-1.0277 9.7805-2.0811 12.302-4.0574 3.5554-2.7806 1.958-5.2798-1.9229-5.0748-3.299 0.17639-15.564 4.5376-16.661-1.131-0.46047-2.3763 2.8038-4.8959 4.4351-6.1178 3.2684-2.4472 6.7339-4.6969 9.8323-7.346 3.0294-2.5925 6.8064-4.8984 7.9601-8.9633 1.3193-4.6462-3.4105-3.8357-5.9548-1.9631-3.4507 2.5398-5.9921 5.4753-8.9864 8.4106-1.6996 1.6764-4.8441 5.6601-7.5436 5.4332-2.6761-0.22693-3.2381-3.2414-2.0679-5.085 0.16946-0.2712 0.37028-0.52632 0.56006-0.78497 3.6009-4.9663 7.3824-9.7872 10.762-14.912 1.959-2.967 3.1808-4.986 4.4708-8.2974 0.92131-2.3724 0.99117-6.149-2.58-5.2153-1.4282 0.37573-2.7253 1.9347-3.6682 2.9753-2.25 2.4837-3.2919 3.9475-5.0465 6.7938-2.7199 4.4085-6.9052 11.727-10.439 15.629-1.1224 1.2361-2.6793 2.7928-4.5612 1.7755-1.9875-1.0706-1.0832-4.241-0.79919-6.0738 0.66289-4.2432 1.7964-8.3843 2.3516-12.653 0.34424-2.653 2.2888-9.0093-0.56986-10.831-6.5257-4.1538-6.9033 13.229-7.2218 15.715-0.54352 4.234-2.1418 21.138-9.168 15.882-1.9705-1.4769-2.8-3.9678-3.7372-6.1418-0.74847-1.7264-3.2994-7.8817-6.0568-5.1048-1.5387 1.5499-0.2645 5.8798 0.12584 7.6976 1.0418 4.8416 3.9953 10.856 3.1666 15.878-0.33729 2.0606-1.2652 3.4966-3.1606 3.4448-3.6932-0.1016-7.1195-7.721-8.5128-10.237-4.1478-7.4603-8.3824-14.682-13.778-21.335-11.085-13.675-27.334-18.753-40.72-4.6595-3.113 3.2789-5.5303 7.1521-7.5979 11.149-4.0567 7.8538-6.5724 16.37-9.7926 24.575-4.0019-4.8815-5.812-9.5171-7.8729-16.155-3.4165-11.017-5.2824-22.264-6.3549-33.791-0.72928-7.8317-4.6975-39.093 2.036-48.794 3.0452 4.8038 6.537 9.2366 11.607 12.197 6.9055 4.0328 15.065 4.5889 22.546 1.8529 11.294-4.1306 21.637-13.881 26.481-20.697 4.8444-6.8226 18.602-27.198 18.602-27.198 2.8803-4.2807 8.4699-6.2584 13.415-7.6525 4.3292-1.222 9.1949-1.5714 13.67-1.8187 1.3903-0.0772 21.356-1.5627 14.587-7.0097-1.9981-1.6078-9.9841-0.50625-12.466-0.314-2.5616 0.19502-5.1969-0.0236-7.2189-1.7901-2.9128-2.5456-1.3354-5.6887 2.0185-8.8329 4.3502-4.0747 10.066-6.8631 14.701-10.657 1.8473-1.5115 4.2502-3.0324 5.2233-5.3177 1.2175-2.8657-0.10497-4.3033-3.0502-3.8557-2.3126 0.35755-4.066 1.8471-5.8272 3.2569-2.3447 1.8804-12.661 10.682-16.625 11.244-5.5118 0.78282-5.8456-3.7473-4.9327-7.6845 1.0898-4.7005 4.4072-8.9431 6.8357-13.022 1.2765-2.1368 6.562-8.8438 2.434-11-4.4714-2.333-9.2511 9.8398-10.91 12.488-2.3106 3.6803-3.5352 9.4415-6.7702 12.342-2.078 1.8606-4.2638 1.8103-5.9181-0.45669-1.5165-2.0725-1.1546-18.631-5.5857-16.379-2.5311 1.2901-3.0409 7.0899-3.4446 9.5358-1.5444 9.3371-1.8172 18.335-6.7429 26.521-3.2227 5.3576-7.2071 10.217-11.354 14.879-2.0646 2.32-4.3269 4.7202-6.3553 6.9161-2.0018 2.1664-3.2451 4.6399-5.877 6.2249-5.6261 3.3864-9.2866-6.1125-11.466-9.5899-4.6084-7.3646-8.752-14.013-15.967-19.339-3.5064-2.5872-8.6692-4.2312-9.4451-9.2296-0.68898-4.428 1.612-9.2528 4.6549-12.351 5.4377-5.5315 13.119-9.3219 20.551-11.303 1.3071-0.34925 2.6117-0.72457 3.8493-1.2746 9.0467-4.0476 35.393-4.2879 44.777-28.846 0 0 2.502-6.5452 9.9132-11.218 7.4101-4.6706 11.728-14.744 11.21-21.979-0.83931-11.769 7.2328-22.221 8.1384-33.194 1.9664-23.842-25.14-22.856-40.921-20.785-7.8387 1.0324-13.074-2.0392-20.469-2.1044-5.0608-0.044364-9.5523 1.875-13.597 4.8249-11.826 8.6372-28.759 6.0591-40.305 16.36-10.672 9.5194-22.741 44.781-26.12 52.4-3.2653 7.3618-6.8123 14.895-12.615 20.629-4.8654 4.8066-10.304 9.492-17.241 9.9858-6.9112 0.49635-13.521-1.8269-20.357-2.3357-7.2402-0.53797-15.552 0.087-22.478 2.4056-3.7313 1.249-7.3651 2.8028-11.214 3.6761-3.1779 0.72021-7.4654 0.1908-7.8434-3.8416-0.28709-3.0584 0.9635-5.5239 1.5205-8.4254 0.56401-2.9353 1.1522-6.1819 1.7917-9.2209 1.2894-6.106 2.8325-12.201 5.2301-17.976 3.6589-8.8248 10.736-14.381 17.331-21.167 1.7284-1.7801 6.0891-5.632 5.6246-8.4353-0.81797-4.906-13.922 5.2142-16.493 5.2231-2.8031 0.01123-4.1438-1.7164-3.8777-4.4958 0.41318-4.3269 4.3171-8.7332 5.9102-12.776 1.1472-2.9124 8.0996-13.981 3.5695-16.198-4.188-2.0449-6.4415 6.1916-7.4064 8.4879-1.8384 4.3757-3.2791 9.5652-6.4159 13.232-2.6254 3.0734-6.4651 5.4926-9.106 0.58921-1.9022-3.5253-0.94673-17.058-0.82592-20.058 0.0898-2.2587 0.2473-4.5552-0.83563-6.6253-1.3855-2.6404-3.3281-2.8509-4.9076-0.1687-1.2617 2.1358-1.0615 4.9734-1.1836 7.3584-0.29899 5.9867 0.85091 12.246 0.15503 18.166-0.53612 4.568-2.131 7.7029-5.9074 6.8692-2.6207-0.58074-4.3602-2.574-5.7202-4.7534-1.3211-2.1137-5.1735-9.1974-7.6557-9.8548-8.3975-2.2154 2.2591 14.744 3.019 15.905 2.4545 3.7545 5.0658 7.8803 6.6526 12.093 1.813 4.8087 3.537 10.483 1.8053 15.346 0 0-8.2278 23.168-10.839 31.118-2.61 7.9494-4.3129 22.064-0.93277 33.612 2.2379 7.6485 7.5313 13.89 14.875 17.055 4.796 2.0723 10.037 2.4514 15.201 2.2034 2.9719-0.14578 6.191-0.62365 9.1437-1.3945 0.63853-0.16865 2.9608-0.97553 3.4363-0.16402 0.55654 0.95378-1.1504 3.7797-1.5522 4.6328-1.9524 4.1241-4.6054 7.8812-6.5013 12.039-2.1997 4.8225-4.1685 9.7508-5.9087 14.759-6.2362 17.924-9.7282 36.782-10.836 55.713-1.1502 19.627-0.20579 40.062 3.6491 59.29 5.3598 26.75 16.681 53.462 31.52 76.314 2.0045 3.0845 4.1159 6.0462 6.3169 8.9069-1.4372-1.8662-16.613 0.0727-19.161 0.17514-6.8114 0.27363-13.677 0.72508-20.397 1.929-11.312 2.0201-22.535 8.3795-23.425 21.302-0.47218 6.7975 3.2007 13.553 6.4257 19.262 4.2118 7.462 9.3748 14.052 14.794 20.644 1.8292 2.2184 7.6618 8.2006 6.3996 11.673-0.64358 1.7857-2.3214 2.1246-4.3597 1.6857-4.9742-1.0694-9.4842-6.0205-13.606-8.7652-1.549-1.0279-5.1056-3.8013-7.1129-2.9395-3.5909 1.5515 1.1968 6.1835 2.5324 7.5103 1.6763 1.6686 3.6904 3.3554 4.3396 5.731 2.3171 8.4654-13.993 3.7628-18.127 2.7194-2.4296-0.61395-18.736-6.6304-17.26 0.96641 0.64832 3.3325 7.2693 3.8445 9.8656 4.4975 4.1718 1.046 8.4411 1.5121 12.626 2.4473 1.8114 0.40546 5.0873 0.72412 5.3591 2.9674 0.25287 2.1249-1.7632 3.0026-3.3256 3.5976-4.9221 1.8576-13.26 3.0772-18.355 3.9909-3.2909 0.5888-5.0347 1.0236-8.167 2.2107-1.3128 0.49808-3.2403 1.1312-4.1104 2.3265-2.1787 2.9817 1.3594 4.3004 3.9047 4.3107 3.5509 0.0144 5.877-0.38447 9.3545-1.1206 6.0026-1.2736 11.871-3.027 17.808-4.5612 0.30879-0.0772 0.62088-0.17193 0.93611-0.23252 2.1455-0.40982 4.743 1.2129 3.9734 3.7875-0.77969 2.5976-5.6383 4.0656-7.8175 5.0387-3.8292 1.7054-7.4881 2.9971-11.113 5.2793-2.6752 1.6845-5.1568 5.7936-0.35589 6.2656 4.2034 0.41145 7.7303-2.259 11.25-4.1294 3.5978-1.9114 6.9625-4.3144 10.433-6.4601 1.7364-1.0715 5.2756-3.1869 7.3152-1.8887 4.8681 3.0969-3.6806 12.92-5.0515 15.927-1.6158 3.5389 0.12755 5.9409 4.0133 3.6472 2.764-1.6197 6.232-7.5664 8.2766-9.9676 5.2781-6.2031 12.014-11.66 18.233-16.859 5.4728-4.5716 13.031-6.6322 17.547-12.2 7.6819-9.4603 5.5749-20.01-1.1932-29.021-4.3025-5.7299-10.351-13.411-12.341-20.129-0.5086-1.7118 30.229 5.5987 32.472 6.1744 7.392 1.8808 24.791 3.3749 35.046-1.2998l11.281 9.1665c63.476 41.936 129.16 54.988 203.55 36.792 33.558-8.2072 66.018-22.882 92.557-45.255 31.291-26.374 51.577-63.627 58.43-103.85 7.4213-43.56 0.16965-89.134-21.586-127.69z" />
</svg>
